<svg height='100px' width='100px'  fill="######" xmlns="http://www.w3.org/2000/svg" xmlns:xlink="http://www.w3.org/1999/xlink" xml:space="preserve" version="1.1" style="shape-rendering:geometricPrecision;text-rendering:geometricPrecision;image-rendering:optimizeQuality;" viewBox="0 0 296 293" x="0px" y="0px" fill-rule="evenodd" clip-rule="evenodd"><defs><style type="text/css">
   
    .fil0 {fill:#000000}
   
  </style></defs><g><path class="fil0" d="M182 57c57,-53 109,-83 110,-27 0,44 1,79 -8,101 8,15 12,31 12,48 0,51 -36,95 -87,114 5,-12 7,-22 5,-31 -8,-38 -34,-25 -47,-63 -14,-35 -25,-35 -38,0 -14,38 -39,25 -47,63 -2,9 -1,19 4,31 -51,-19 -86,-63 -86,-114 0,-17 4,-33 11,-48 -9,-22 -8,-57 -7,-101 1,-56 53,-26 110,27 21,-4 47,-4 68,0zm-81 18c-14,-13 -29,-26 -44,-37 -5,-3 -22,-14 -30,-16 -1,3 -1,6 -1,8 0,19 -4,81 10,100 15,-5 46,-35 65,-55zm94 0c19,20 49,50 65,55 14,-19 10,-81 10,-100 0,-2 -1,-5 -1,-8 -9,2 -25,13 -30,16 -16,11 -30,24 -44,37zm-114 65c18,0 32,14 32,31 0,18 -14,32 -32,32 -17,0 -31,-14 -31,-32 0,-17 14,-31 31,-31zm133 0c-17,0 -31,14 -31,31 0,18 14,32 31,32 17,0 31,-14 31,-32 0,-17 -14,-31 -31,-31z"></path><path class="fil0" d="M139 238l-7 -12c-5,-9 -5,-10 5,-10l21 0c11,0 11,1 6,10l-7 12c-1,2 -2,3 -3,4 5,17 31,8 24,-8 -2,-5 5,-8 7,-3 10,25 -28,39 -37,16 -10,23 -48,9 -37,-16 2,-5 9,-2 7,3 -7,16 19,25 23,8 0,-1 -1,-2 -2,-4z"></path><path class="fil0" d="M211 76c14,14 31,31 44,39 5,-19 4,-58 4,-77 -14,8 -33,24 -48,38z"></path><path class="fil0" d="M85 76c-15,-14 -34,-30 -48,-38 -1,19 -1,58 4,77 12,-8 30,-25 44,-39z"></path><path class="fil0" d="M214 151c-11,0 -20,9 -20,20 0,12 9,21 20,21 11,0 20,-9 20,-21 0,-11 -9,-20 -20,-20z"></path><circle class="fil0" cx="81" cy="171" r="20"></circle></g></svg>
